<svg width="134" height="23" viewBox="0 0 134 23" fill="none" xmlns="http://www.w3.org/2000/svg">
<path fill-rule="evenodd" clip-rule="evenodd" d="M82.9993 8.06301C82.5269 8.99678 82.2907 10.067 82.2907 11.2738C82.2907 12.4948 82.5269 13.5795 82.9993 14.5276C83.486 15.4614 84.1445 16.1868 84.9748 16.704C85.8051 17.2212 86.7212 17.4798 87.7233 17.4798C88.6108 17.4798 89.391 17.3002 90.0638 16.941C90.7366 16.5819 91.2591 16.1078 91.6313 15.5188V17.2858H94.6803V1.33984H91.6313V7.00713C91.2161 6.44687 90.6578 6.00153 89.9564 5.67111C89.255 5.32634 88.5177 5.15395 87.7447 5.15395C86.7284 5.15395 85.8051 5.40535 84.9748 5.90815C84.1445 6.41095 83.486 7.12924 82.9993 8.06301ZM91.2233 9.44212C91.5096 9.95929 91.6527 10.5842 91.6527 11.3169C91.6527 12.0495 91.5096 12.6816 91.2233 13.2131C90.937 13.7303 90.5505 14.1325 90.0638 14.4199C89.5771 14.6928 89.0546 14.8293 88.4963 14.8293C87.9523 14.8293 87.437 14.6856 86.9503 14.3983C86.4779 14.111 86.0914 13.7016 85.7907 13.17C85.5044 12.6241 85.3613 11.992 85.3613 11.2738C85.3613 10.5555 85.5044 9.93774 85.7907 9.42057C86.0914 8.88904 86.4779 8.4868 86.9503 8.21385C87.4226 7.9409 87.938 7.80443 88.4963 7.80443C89.0546 7.80443 89.5771 7.94808 90.0638 8.2354C90.5505 8.50835 90.937 8.91059 91.2233 9.44212ZM115.926 5.18364C117.343 5.18364 118.489 5.63616 119.362 6.5412C120.235 7.43187 120.672 8.68169 120.672 10.2907V17.294H117.665V10.7001C117.665 9.75194 117.429 9.02647 116.957 8.52367C116.484 8.0065 115.84 7.74792 115.024 7.74792C114.194 7.74792 113.536 8.0065 113.049 8.52367C112.576 9.02647 112.34 9.75194 112.34 10.7001V17.294H109.334V5.35602H112.34V6.84288C112.741 6.32571 113.249 5.92347 113.865 5.63616C114.495 5.33448 115.182 5.18364 115.926 5.18364ZM108.277 5.41664L100.912 23.0003H97.7124L100.289 17.0529L95.5222 5.41664H98.8933L101.964 13.7559L105.077 5.41664H108.277ZM68.5946 11.3034C68.5946 10.0967 68.8308 9.02647 69.3032 8.0927C69.7899 7.15892 70.4412 6.44064 71.2572 5.93784C72.0874 5.43504 73.0107 5.18364 74.0271 5.18364C74.9146 5.18364 75.6876 5.36321 76.3461 5.72235C77.0189 6.08149 77.5557 6.53401 77.9566 7.07991V5.37757H80.9842V17.3155H77.9566V15.5701C77.5701 16.1303 77.0332 16.5972 76.3461 16.9707C75.6733 17.3299 74.8932 17.5094 74.0056 17.5094C73.0036 17.5094 72.0874 17.2509 71.2572 16.7337C70.4412 16.2165 69.7899 15.4911 69.3032 14.5573C68.8308 13.6091 68.5946 12.5245 68.5946 11.3034ZM77.9566 11.3465C77.9566 10.6139 77.8134 9.98898 77.5271 9.47181C77.2408 8.94028 76.8543 8.53804 76.3676 8.26509C75.8809 7.97777 75.3584 7.83412 74.8001 7.83412C74.2418 7.83412 73.7265 7.97059 73.2541 8.24354C72.7817 8.51649 72.3952 8.91873 72.0946 9.45026C71.8083 9.96743 71.6651 10.5852 71.6651 11.3034C71.6651 12.0217 71.8083 12.6538 72.0946 13.1997C72.3952 13.7313 72.7817 14.1407 73.2541 14.428C73.7408 14.7153 74.2561 14.859 74.8001 14.859C75.3584 14.859 75.8809 14.7225 76.3676 14.4495C76.8543 14.1622 77.2408 13.76 77.5271 13.2428C77.8134 12.7113 77.9566 12.0792 77.9566 11.3465ZM65.9076 5.72235C65.292 6.08149 64.791 6.57711 64.4045 7.20921V5.35602H61.3984V17.294H64.4045V11.3465C64.4045 10.2404 64.6407 9.46463 65.1131 9.01929C65.5998 8.57395 66.3156 8.35128 67.2603 8.35128H68.0548V5.18364C67.2532 5.18364 66.5374 5.36321 65.9076 5.72235ZM57.1379 7.81842V13.5934C57.1379 13.9957 57.231 14.2902 57.4171 14.4769C57.6175 14.6493 57.9467 14.7355 58.4048 14.7355H59.8005V17.2783H57.9109C55.3772 17.2783 54.1103 16.0428 54.1103 13.5719V7.81842H52.6931V5.34033H54.1103V2.38817H57.1379V5.34033H59.8005V7.81842H57.1379ZM51.7949 12.2516C51.8522 11.9068 51.8809 11.5189 51.8809 11.088C51.8809 9.92433 51.6302 8.89718 51.1289 8.0065C50.6418 7.10146 49.9471 6.40472 49.0447 5.91629C48.1566 5.42785 47.1467 5.18364 46.0151 5.18364C44.8406 5.18364 43.8021 5.43504 42.8996 5.93784C41.9972 6.44064 41.2953 7.15892 40.794 8.0927C40.2927 9.02647 40.042 10.1111 40.042 11.3465C40.042 12.5676 40.2927 13.6451 40.794 14.5788C41.3097 15.5126 42.0187 16.2381 42.9211 16.7552C43.8379 17.258 44.8692 17.5094 46.0151 17.5094C47.4332 17.5094 48.6293 17.1431 49.6033 16.4105C50.5774 15.6634 51.2363 14.7153 51.5801 13.566H48.3356C47.863 14.5285 47.068 15.0098 45.9507 15.0098C45.1772 15.0098 44.5254 14.7656 43.9954 14.2771C43.4655 13.7887 43.1646 13.1135 43.093 12.2516H51.7949ZM47.9274 8.37283C48.4717 8.83253 48.751 9.45026 48.7654 10.226H43.1145C43.2291 9.42153 43.5371 8.79662 44.0384 8.35128C44.5541 7.89158 45.1843 7.66173 45.9292 7.66173C46.717 7.66173 47.3831 7.89876 47.9274 8.37283ZM34.0043 5.18364C35.4261 5.18364 36.5751 5.63616 37.4511 6.5412C38.3272 7.43187 38.7652 8.68169 38.7652 10.2907V17.294H35.7492V10.7001C35.7492 9.75194 35.5123 9.02647 35.0383 8.52367C34.5644 8.0065 33.9181 7.74792 33.0995 7.74792C32.2665 7.74792 31.6058 8.0065 31.1175 8.52367C30.6436 9.02647 30.4066 9.75194 30.4066 10.7001V17.294H27.3906V5.35602H30.4066V6.84288C30.8088 6.32571 31.3186 5.92347 31.9362 5.63616C32.5681 5.33448 33.2575 5.18364 34.0043 5.18364ZM133.731 12.2516C133.788 11.9068 133.817 11.5189 133.817 11.088C133.817 9.92433 133.566 8.89718 133.065 8.0065C132.579 7.10146 131.884 6.40472 130.982 5.91629C130.095 5.42785 129.086 5.18364 127.955 5.18364C126.781 5.18364 125.743 5.43504 124.841 5.93784C123.94 6.44064 123.238 7.15892 122.737 8.0927C122.236 9.02647 121.986 10.1111 121.986 11.3465C121.986 12.5676 122.236 13.6451 122.737 14.5788C123.252 15.5126 123.961 16.2381 124.863 16.7552C125.779 17.258 126.81 17.5094 127.955 17.5094C129.372 17.5094 130.567 17.1431 131.541 16.4105C132.514 15.6634 133.173 14.7153 133.516 13.566H130.274C129.802 14.5285 129.007 15.0098 127.89 15.0098C127.117 15.0098 126.466 14.7656 125.936 14.2771C125.407 13.7887 125.106 13.1135 125.035 12.2516H133.731ZM129.866 8.37283C130.41 8.83253 130.689 9.45026 130.703 10.226H125.056C125.171 9.42153 125.478 8.79662 125.979 8.35128C126.495 7.89158 127.125 7.66173 127.869 7.66173C128.656 7.66173 129.322 7.89876 129.866 8.37283Z" fill="black"/>
<path fill-rule="evenodd" clip-rule="evenodd" d="M22.5173 0C22.6135 0 22.6914 0.0782241 22.6914 0.174718L22.6334 22.1893C22.6334 22.33 22.6063 22.457 22.5652 22.5508C22.5459 22.6117 22.5124 22.6688 22.4622 22.7189C22.235 22.9457 21.8675 22.9447 21.6415 22.7167L11.1824 12.1638L1.00979 22.6984C0.903633 22.8156 0.750542 22.8891 0.580337 22.8891C0.259826 22.8891 0 22.6283 0 22.3067V0.641609C0 0.59291 0.00595622 0.545607 0.0171772 0.500394C0.0418195 0.400468 0.0931762 0.305834 0.171217 0.227938C0.398463 0.00111205 0.765911 0.00210596 0.991935 0.230157L3.35669 2.62909L3.71633 0.36739C3.72625 0.282165 3.76728 0.200405 3.83784 0.140762C3.87845 0.106427 3.9246 0.0830123 3.97274 0.070212C4.01852 0.0579326 4.06755 0.0548835 4.11736 0.0628606C4.20783 0.0773482 4.28456 0.125591 4.33684 0.192743L6.62463 2.89117L7.47358 0.307362C7.52878 0.139354 7.70925 0.0480642 7.87666 0.103462C7.94758 0.126928 8.00478 0.172953 8.04296 0.230983L9.89007 2.93529L11.2174 0.21552C11.2216 0.206794 11.2264 0.198576 11.2317 0.190894C11.2474 0.168437 11.2686 0.149355 11.2945 0.135913C11.38 0.0916568 11.485 0.125291 11.5291 0.211038L13.022 3.12955L14.9379 0.203911C14.9581 0.16871 14.9906 0.140404 15.0319 0.12614C15.0613 0.11601 15.0915 0.114199 15.1199 0.11946C15.1421 0.123479 15.1638 0.131902 15.1839 0.144998C15.2206 0.169031 15.2454 0.204648 15.2564 0.243958L16.2226 3.08006L18.5733 0.20018L18.5767 0.196094C18.5826 0.189235 18.5891 0.182913 18.5962 0.177231C18.6145 0.162609 18.6366 0.152232 18.6613 0.147865C18.7402 0.13389 18.8154 0.186756 18.8294 0.265944L19.3398 3.19001L22.3922 0.0530244C22.4168 0.0275593 22.4473 0.0112463 22.4795 0.00414652C22.4917 0.00143166 22.5043 0 22.5173 0ZM9.55821 3.61529L7.87665 1.12641L7.10907 3.46257L8.71077 5.35176L9.55821 3.61529ZM8.97705 5.66583L9.79588 3.96707L11.1556 5.97964L10.3222 7.2524L8.97705 5.66583ZM8.37153 6.04688L6.85104 4.2479L6.37641 5.69245L7.82656 7.16356L8.37153 6.04688ZM5.87226 5.18102L6.36702 3.67523L4.2869 1.21412L3.96395 3.24513L5.87226 5.18102ZM3.73986 4.65445L5.47129 6.40141L1.57779 18.2514L3.73986 4.65445ZM3.13214 4.04128L1.16067 2.05213V16.4396L3.13214 4.04128ZM1.90913 19.2888L5.97611 6.91076L7.29869 8.2452L1.90913 19.2888ZM8.64017 6.36473L9.91541 7.87354L9.361 8.72018L8.11438 7.45554L8.64017 6.36473ZM10.1703 8.17517L9.63512 8.99826L10.5961 9.97311L11.1335 9.31472L10.1703 8.17517ZM11.3692 9.59365L10.8529 10.2337L11.6748 11.0674L12.1778 10.5504L11.3692 9.59365ZM12.6804 10.0339L11.8265 9.02676L12.5818 8.09049L13.3971 9.29729L12.6804 10.0339ZM12.4404 10.861L11.9609 11.3576L18.2676 17.7555L12.4404 10.861ZM20.6111 18.6317L15.164 8.04055L14.1174 9.12441L20.6111 18.6317ZM13.6249 9.63441L18.6597 17.0865L12.9416 10.342L13.6249 9.63441ZM13.8897 8.79107L14.9759 7.67479L14.1743 6.11626L13.0309 7.53372L13.8897 8.79107ZM12.8288 7.2378L14.0081 5.79304L12.9973 3.8277L11.7791 5.70105L12.8288 7.2378ZM11.381 6.31327L10.5758 7.55158L11.5932 8.75155L12.3784 7.78952L11.381 6.31327ZM11.554 5.37136L12.8071 3.4578L11.3794 0.681891L10.1264 3.28133L11.554 5.37136ZM9.88032 10.85L9.00519 9.96701L2.75399 19.5805L9.88032 10.85ZM8.72779 9.68712L7.59139 8.54053L2.32798 19.4601L8.72779 9.68712ZM10.8925 11.8713L10.1424 11.1145L2.93535 20.0489L10.8925 11.8713ZM14.2395 5.50957L13.211 3.49904L15.0399 0.686415L15.9677 3.39231L14.2395 5.50957ZM15.2192 7.42477L14.4041 5.83141L16.0882 3.7437L16.795 5.80525L15.2192 7.42477ZM15.406 7.78996L21.6825 20.06L16.9332 6.20835L15.406 7.78996ZM19.172 3.88992L22.0248 20.1125L17.1957 5.93658L19.172 3.88992ZM19.0934 3.44316L17.0586 5.53434L16.3416 3.42952L18.5989 0.631174L19.0934 3.44316ZM19.4175 3.63563L22.3432 20.3971V0.60582L19.4175 3.63563Z" fill="#3DB174"/>
</svg>
